<?xml version="1.0" encoding="UTF-8"?><svg xmlns="http://www.w3.org/2000/svg" viewBox="0 0 43.49 39"><defs><style>.e{fill:#00c9ff;}.f{fill:#0d67fe;}</style></defs><g id="a"/><g id="b"><g id="c"><g id="d"><path class="e" d="M43.49,.64V15.45L0,32.94,43.49,.64Z"/><path class="f" d="M35.34,0V25.54c0,3.57-1.43,6.99-3.98,9.52-2.55,2.52-6.01,3.94-9.61,3.94s-7.06-1.42-9.61-3.94c-2.55-2.52-3.98-5.95-3.98-9.52V14.78l8.15-4.44v15.21c-.08,.66-.01,1.34,.19,1.97,.2,.64,.54,1.22,.99,1.72s1,.9,1.62,1.17c.62,.27,1.28,.41,1.96,.41s1.34-.14,1.96-.41c.62-.27,1.17-.67,1.62-1.17,.45-.5,.79-1.08,.99-1.72,.2-.64,.27-1.31,.19-1.97V5.15L35.34,0Z"/></g></g></g></svg>